<svg width="126" height="126" viewBox="0 0 126 126" fill="none" xmlns="http://www.w3.org/2000/svg">
<path d="M63 0C79.7086 0 95.7329 6.63748 107.548 18.4523C119.363 30.2671 126 46.2914 126 63C126 79.7086 119.363 95.7329 107.548 107.548C95.7329 119.363 79.7086 126 63 126C46.2914 126 30.2671 119.363 18.4523 107.548C6.63748 95.7329 0 79.7086 0 63C0 46.2914 6.63748 30.2671 18.4523 18.4523C30.2671 6.63748 46.2914 0 63 0ZM57.0938 23.625V63V66L59.727 67.9219L87.5 86.5L91.5469 82.023L95 78L68.9062 59.85V23.625H63H57.0938Z" fill="white"/>
</svg>
