<svg width="184" height="144" viewBox="0 0 184 144" fill="none" xmlns="http://www.w3.org/2000/svg">
<path d="M112.19 2.33036L103.67 0.5L64.17 139L72.17 141.5L80.67 144L118.24 13.2358L120.67 4.5L112.19 2.33036ZM134.355 35.4048L128.085 41.5L134.355 47.88L158.913 72.4999L134.328 97.1198L128.085 103.5L134.328 109.595L140.585 115.5L146.785 109.595L177.585 78.7513L183.585 72.4999L177.585 66.2761L146.785 35.4323L140.585 29.5L134.328 35.4323L134.355 35.4048ZM50.0125 35.4048L43.67 29.5L37.555 35.4048L6.75504 66.2485L0.669983 72.4999L6.75504 78.7237L43.67 115.5L50.0125 109.567L56.17 104L25.4275 72.4999L50.0125 47.88L56.17 41.6424L50.0125 35.4048Z" fill="white"/>
</svg>
