<svg width="127" height="126" viewBox="0 0 127 126" fill="none" xmlns="http://www.w3.org/2000/svg">
<path d="M86.625 23.625C86.625 27.1441 85.8621 30.491 84.4594 33.518L97.4531 55.9617C91.6207 62.1879 84.1148 66.8145 75.6738 69.1523L63 47.25L46.2656 76.166C51.5566 77.8395 57.1676 78.75 63.0246 78.75C80.4234 78.75 99.3855 67.6246 109.5 55L115 59L121.5 64C108.482 80.193 85.3945 94.5 63 94.5C54.2883 94.5 45.9211 92.925 38.2184 90.0457L24.2895 114.114L22.5 117L5 124.5L1.87031 125.409L1.5 122L0 105L1.59961 102.498L16.3652 76.9781L10.5607 70.9891L4.75625 65L11 58.9391L16 54L24.4617 63.0246L41.5406 33.518C40.1625 30.5156 39.375 27.1687 39.375 23.625C39.375 10.582 49.957 0 63 0C76.043 0 86.625 10.582 86.625 23.625ZM91.793 96.9363C99.8156 93.7863 107.174 89.3566 113.671 83.918L124.425 102.498L126.5 106.5L124.5 122L124.154 125.409L120.5 124L104 118L101.735 114.114L91.793 96.9363ZM63 31.5C65.0886 31.5 67.0916 30.6703 68.5685 29.1935C70.0453 27.7166 70.875 25.7136 70.875 23.625C70.875 21.5364 70.0453 19.5334 68.5685 18.0565C67.0916 16.5797 65.0886 15.75 63 15.75C60.9114 15.75 58.9084 16.5797 57.4315 18.0565C55.9547 19.5334 55.125 21.5364 55.125 23.625C55.125 25.7136 55.9547 27.7166 57.4315 29.1935C58.9084 30.6703 60.9114 31.5 63 31.5Z" fill="white"/>
</svg>
