<svg width="78" height="69" viewBox="0 0 78 69" fill="none" xmlns="http://www.w3.org/2000/svg">
<g clip-path="url(#clip0_14_8)">
<path d="M8.66667 0H0V47.4375V56.0625H32.5L31.051 60.375H17.3333V64.6875V69H60.6667V64.6875V60.375H46.949L45.5 56.0625H78V47.4375V8.625V0H8.66667ZM69.3333 8.625V38.8125H8.66667V8.625H69.3333Z" fill="white"/>
<path d="M33.9115 19.077L29.4751 23.5072L36.5455 30.1579L33.9115 32.782L31.8182 35L20 23.5L22.3636 21.0789L31.2273 12L33.9115 14.218L36.5455 16.2368L33.9115 19.077ZM49.9399 14.218L56.8092 21.0777L59 23.5072L56.8092 25.9223L48.3636 35L45.5823 32.782L42.4545 30.1579L49.5249 23.5072L45.0885 19.077L42.4545 16.2368L45.0885 14.2323L47.7727 12L49.9399 14.2323V14.218Z" fill="white"/>
</g>
<defs>
<clipPath id="clip0_14_8">
<rect width="78" height="69" fill="white"/>
</clipPath>
</defs>
</svg>
