<svg width="184" height="111" viewBox="0 0 184 111" fill="none" xmlns="http://www.w3.org/2000/svg">
<path d="M55.2 0.375H0V55.5V110.625H55.2H128.8H184V55.5V0.375H128.8H55.2ZM142.6 30.2344C145.65 30.2344 148.575 31.4443 150.732 33.5981C152.888 35.7518 154.1 38.6729 154.1 41.7188C154.1 44.7646 152.888 47.6857 150.732 49.8394C148.575 51.9932 145.65 53.2031 142.6 53.2031C139.55 53.2031 136.625 51.9932 134.468 49.8394C132.312 47.6857 131.1 44.7646 131.1 41.7188C131.1 38.6729 132.312 35.7518 134.468 33.5981C136.625 31.4443 139.55 30.2344 142.6 30.2344ZM112.7 69.2812C112.7 66.2354 113.912 63.3143 116.068 61.1606C118.225 59.0068 121.15 57.7969 124.2 57.7969C127.25 57.7969 130.175 59.0068 132.332 61.1606C134.488 63.3143 135.7 66.2354 135.7 69.2812C135.7 72.3271 134.488 75.2482 132.332 77.4019C130.175 79.5557 127.25 80.7656 124.2 80.7656C121.15 80.7656 118.225 79.5557 116.068 77.4019C113.912 75.2482 112.7 72.3271 112.7 69.2812ZM48.3 32.5312H55.2H62.1V48.6094H78.2V55.5V62.3906H62.1V78.4688H55.2H48.3V62.3906H32.2V55.5V48.6094H48.3V32.5312Z" fill="white"/>
</svg>
