<svg width="150" height="150" viewBox="0 0 150 150" fill="none" xmlns="http://www.w3.org/2000/svg">
<g clip-path="url(#clip0_29_2)">
<path d="M150 0H0V150H150V0Z" fill="#F7DF1E"/>
<path d="M100.762 117.188C103.783 122.121 107.714 125.748 114.667 125.748C120.507 125.748 124.238 122.829 124.238 118.795C124.238 113.962 120.405 112.25 113.976 109.438L110.452 107.926C100.281 103.593 93.5238 98.1643 93.5238 86.6881C93.5238 76.1167 101.579 68.0691 114.167 68.0691C123.129 68.0691 129.571 71.1881 134.214 79.3548L123.238 86.4024C120.821 82.0691 118.214 80.3619 114.167 80.3619C110.038 80.3619 107.421 82.981 107.421 86.4024C107.421 90.631 110.04 92.3429 116.088 94.9619L119.612 96.4714C131.588 101.607 138.35 106.843 138.35 118.614C138.35 131.305 128.381 138.257 114.993 138.257C101.902 138.257 93.4452 132.019 89.3071 123.843L100.762 117.188ZM50.969 118.41C53.1833 122.338 55.1976 125.66 60.0405 125.66C64.6714 125.66 67.5929 123.848 67.5929 116.802V68.8738H81.6881V116.993C81.6881 131.588 73.131 138.231 60.6405 138.231C49.3548 138.231 42.819 132.39 39.4952 125.356L50.969 118.41Z" fill="black"/>
</g>
<defs>
<clipPath id="clip0_29_2">
<rect width="150" height="150" rx="15" fill="white"/>
</clipPath>
</defs>
</svg>
