<svg xmlns="http://www.w3.org/2000/svg" viewBox="0 0 157 157" fill="#FFFFFF">
<path d="M78.5 157C99.3195 157 119.286 148.729 134.008 134.008C148.729 119.286 157 99.3195 157 78.5C157 57.6805 148.729 37.7137 134.008 22.9921C119.286 8.27051 99.3195 0 78.5 0C57.6805 0 37.7137 8.27051 22.9921 22.9921C8.27051 37.7137 0 57.6805 0 78.5C0 99.3195 8.27051 119.286 22.9921 134.008C37.7137 148.729 57.6805 157 78.5 157ZM68.6875 49.0625V107.938H58.875H49.0625V49.0625H58.875H68.6875ZM107.938 49.0625V107.938H98.125H88.3125V49.0625H98.125H107.938Z" fill="white"/>
</svg>
