<svg xmlns="http://www.w3.org/2000/svg" viewBox="0 0 157 157" fill="#FFFFFF">
<path d="M0 78.5C0 57.6805 8.27051 37.7137 22.9921 22.9921C37.7137 8.27051 57.6805 0 78.5 0C99.3195 0 119.286 8.27051 134.008 22.9921C148.729 37.7137 157 57.6805 157 78.5C157 99.3195 148.729 119.286 134.008 134.008C119.286 148.729 99.3195 157 78.5 157C57.6805 157 37.7137 148.729 22.9921 134.008C8.27051 119.286 0 99.3195 0 78.5ZM59.5 41.5L54 38V118.5L59.5 115L65.1918 111.74L117.5 77L109.348 72.1832L65.1918 45.1988L59.5 41.5Z" fill="white"/>
</svg>
