<svg width="54" height="75" viewBox="0 0 54 75" fill="none" xmlns="http://www.w3.org/2000/svg">
<g clip-path="url(#clip0_6_2)">
<path d="M2.65148 25.309C1.74445 24.892 0.958649 24.5701 0.316541 24.3276C0.181832 23.31 0.0830465 22.2901 0.0224279 21.2657C-0.0269651 20.4226 0.00446679 19.5908 0.103253 18.7749C0.648821 18.8656 1.42115 19.0016 2.38207 19.1897C2.28777 20.3478 2.27879 21.5671 2.38207 22.8545C2.44717 23.6772 2.53698 24.4953 2.65148 25.309ZM11.623 30.6554C9.32851 28.9556 7.17318 27.6389 5.30074 26.628C4.92131 24.2732 4.75966 21.9388 4.90111 19.7178C6.63211 20.103 8.67967 20.6017 10.9315 21.234C10.7834 24.2052 11.0595 27.4009 11.623 30.6554ZM35.188 31.8952C35.1655 32.1513 35.1363 32.4119 35.1094 32.6726C31.9752 34.3248 28.8545 36.5526 26.0503 39.5556C25.1433 40.5257 24.317 41.5002 23.5604 42.4702C22.7118 41.3869 21.807 40.29 20.8461 39.1885C20.415 38.6967 19.9839 38.2185 19.5484 37.7516C18.8277 32.8788 18.3697 28.0717 18.2844 23.5661C23.8635 25.5651 29.8872 28.278 35.188 31.8952Z" fill="#2AC64B"/>
<path d="M3.33627 14.4552C2.86703 15.8921 2.52577 17.4695 2.38208 19.1897C1.42117 19.0016 0.648839 18.8656 0.103271 18.7749C0.16389 18.2605 0.255941 17.7528 0.370443 17.2519C1.05521 16.5085 2.04531 15.5272 3.33627 14.4552Z" fill="#008A5A"/>
<path d="M14.2543 8.24519C12.6042 11.3003 11.2818 15.4184 10.9473 20.9122C10.9428 21.0187 10.936 21.1275 10.9315 21.234C8.67967 20.6017 6.63435 20.1053 4.90335 19.7178C4.9056 19.643 4.91233 19.5727 4.91682 19.4979C5.13235 16.6173 5.97428 13.9747 7.24727 11.6289C9.21626 10.4028 11.549 9.21068 14.2543 8.24519Z" fill="#009550"/>
<path d="M35.188 31.8952C29.8872 28.278 23.8635 25.5651 18.2844 23.5661C18.1766 18.1993 18.5897 13.2653 19.6898 9.17669C19.719 9.06337 19.7504 8.95232 19.7819 8.84353C24.207 11.4839 29.9725 14.428 35.4462 15.7198C35.9244 20.5926 35.7807 26.1294 35.188 31.8952Z" fill="#00983E"/>
<path d="M53.9775 21.2657C53.8428 23.5321 53.5218 25.7759 53.0233 28.0196C52.3925 28.0445 51.665 28.0853 50.859 28.1556C51.2138 26.4263 51.4742 24.6563 51.6179 22.8545C52.0983 16.7896 50.1563 12.1706 47.9112 8.94552C48.569 9.13363 49.1931 9.31947 49.7746 9.50079C52.2959 12.7282 54.2424 16.8757 53.9775 21.2657ZM48.3669 28.448C46.609 28.7018 44.6243 29.0984 42.5296 29.7036C43.01 26.6598 43.2188 23.6862 43.0504 20.9122C42.6688 14.5866 40.9715 10.0878 38.9755 6.92841C40.8525 7.24118 42.6329 7.6106 44.2763 7.99816C46.8964 11.1213 48.7508 15.0195 49.0831 19.5002C49.2942 22.3559 48.9911 25.4019 48.3669 28.448Z" fill="#009A37"/>
<path d="M35.4462 15.7198C29.9726 14.4257 24.2071 11.4816 19.7819 8.84353C20.0154 8.02535 20.2758 7.28197 20.5632 6.60658C21.3737 6.46607 22.2089 6.35274 23.0688 6.26435C26.5263 5.90853 29.9793 5.94252 33.2662 6.21449C33.6546 7.08026 34.0093 8.06162 34.3102 9.17669C34.8445 11.1711 35.2194 13.3673 35.4462 15.7198Z" fill="#00863F"/>
<path d="M11.8161 3.26816C11.6343 3.38148 5.75427 7.03493 3.33626 14.4529C2.04531 15.5249 1.0552 16.5085 0.372681 17.2496C1.97122 10.251 8.35189 4.53508 11.8161 3.26816ZM15.5363 6.15557C15.094 6.79016 14.663 7.48595 14.2544 8.2452C11.5512 9.21069 9.21627 10.4028 7.24729 11.6312C8.75377 8.84126 10.8709 6.4638 13.2575 4.57815C13.8233 4.9861 14.5979 5.52777 15.5363 6.15557Z" fill="#06CBF6"/>
<path d="M49.7746 9.50078C49.1931 9.31947 48.569 9.13363 47.9112 8.94552C45.2574 5.13342 42.1793 3.26589 42.1793 3.26589C44.2202 4.01154 47.2803 6.30741 49.7746 9.50078ZM44.2763 7.99816C42.6351 7.6106 40.8547 7.24118 38.9778 6.92841C35.6101 1.58875 31.3802 0.0725251 31.1737 0.00226641C35.7066 0.920162 40.7043 3.74184 44.2763 7.99816ZM33.2662 6.21449C29.9793 5.94026 26.5263 5.90853 23.0687 6.26435C22.2089 6.35274 21.3759 6.46606 20.5632 6.60658C22.9924 0.827239 26.9439 0 26.9439 0H27.0561C27.0561 0 30.8279 0.78871 33.2662 6.21449ZM22.8285 0.00226641C22.6332 0.0702587 18.8075 1.44144 15.5363 6.15557C14.6001 5.53004 13.8233 4.98837 13.2575 4.58041C16.239 2.22788 19.6472 0.645926 22.8285 0.00226641Z" fill="url(#paint0_linear_6_2)"/>
<path d="M27 75H31.0615L32.5634 68.3821H21.4366L22.9385 75H27Z" fill="white"/>
<path d="M11.6635 45.378C12.4448 47.0076 13.1902 48.4626 13.8323 49.6774C14.9324 51.7557 15.9786 53.5235 17.0585 55.1327C17.3706 54.0312 17.759 52.8685 18.244 51.6628C17.4065 49.725 16.5669 47.6422 15.7676 45.4732C14.0299 40.7614 12.4874 35.6347 11.6253 30.6554C9.33078 28.9579 7.17545 27.6389 5.30301 26.6303C6.37394 33.3321 9.19607 40.2333 11.6635 45.378Z" fill="url(#paint1_linear_6_2)"/>
<path d="M7.99492 45.2942C8.43721 46.0738 8.89747 46.858 9.37344 47.649C11.6029 51.3387 14.178 54.7474 16.4703 57.5169C16.5377 57.1815 16.6162 56.8347 16.7038 56.4834C15.7766 55.1961 14.8718 53.8907 14.0927 52.6781C12.9769 50.9443 11.3626 48.4309 9.67877 45.3372C6.79602 40.0316 3.71794 33.017 2.64925 25.3113C1.74222 24.8942 0.956422 24.5724 0.316559 24.3299C1.23931 31.2356 3.85714 38.0167 7.99492 45.2942Z" fill="url(#paint2_linear_6_2)"/>
<path d="M19.9503 40.3239C20.2399 42.0691 20.5789 43.8414 20.9449 45.5933C20.9808 45.7611 21.0145 45.9265 21.0504 46.0942C21.7823 44.8998 22.6152 43.6873 23.5582 42.4725C22.6826 41.3552 21.7778 40.2605 20.8438 39.1885C20.4128 38.6967 19.9817 38.2185 19.5461 37.7538C19.6741 38.6083 19.8066 39.465 19.9503 40.3239Z" fill="url(#paint3_linear_6_2)"/>
<path d="M50.8568 28.1556C49.824 33.2188 48.0055 37.908 46.0702 41.9195C46.4608 42.3161 46.8425 42.7127 47.2129 43.1026C49.97 37.9283 51.93 32.9785 53.0234 28.0196C52.3902 28.0445 51.6651 28.0831 50.8568 28.1556ZM42.5318 29.7035C42.1524 32.1218 41.6068 34.5831 40.9468 37.024C42.0873 38.0621 43.3334 39.2247 44.5592 40.4169C46.0926 36.7226 47.525 32.5819 48.3692 28.448C46.609 28.7041 44.6266 29.1007 42.5318 29.7035Z" fill="#97CC1A"/>
<path d="M26.0503 39.5534C25.1433 40.5234 24.3171 41.4979 23.5605 42.4702C26.8586 46.6767 29.3102 50.6769 31.0862 54.0221C31.7305 51.5064 32.3996 48.721 32.999 45.8676C33.3874 44.0273 33.7444 42.162 34.0497 40.3239C34.4785 37.7584 34.8355 35.1951 35.1094 32.6725C31.973 34.3248 28.8545 36.5504 26.0503 39.5534ZM46.0702 41.9195C45.9961 42.0736 45.922 42.2255 45.8479 42.3773C43.6589 46.8353 41.3576 50.4163 39.905 52.6759C38.2279 55.2845 35.9671 58.3396 34.1755 60.6763C34.2406 60.8485 34.3034 61.0095 34.3618 61.1636C37.1368 58.113 41.2723 53.1971 44.6243 47.649C45.4662 46.2551 46.252 44.884 46.9862 43.5264C47.0625 43.3859 47.1389 43.2453 47.213 43.1026C46.8425 42.7105 46.4608 42.3161 46.0702 41.9195ZM40.9468 37.0241L40.8592 37.3413C38.7331 45.0902 35.4956 52.5965 32.9339 57.7685C33.2123 58.3827 33.466 58.9561 33.6883 59.4819C36.0546 56.6398 38.0034 53.7615 40.1677 49.6774C41.3554 47.4291 42.8956 44.3649 44.3661 40.8792L44.5592 40.4169C43.3334 39.2247 42.0873 38.0621 40.9468 37.0241Z" fill="url(#paint4_linear_6_2)"/>
<path d="M29.1351 64.5133C30.8639 62.7047 32.3434 61.1001 33.6883 59.4819C33.466 58.9561 33.2145 58.385 32.9339 57.7685C31.1198 61.4355 29.6403 63.9286 29.1351 64.5133Z" fill="url(#paint5_linear_6_2)"/>
<path d="M31.259 64.4045C31.3511 64.3139 32.5769 63.124 34.3641 61.1636C34.3034 61.0095 34.2428 60.8485 34.1777 60.6763C32.5747 62.7705 31.3533 64.2912 31.259 64.4045Z" fill="url(#paint6_linear_6_2)"/>
<path d="M21.0504 46.092C23.0935 55.7401 25.8954 64.5881 25.8954 64.5881H28.1046C28.1046 64.5881 29.5258 60.0938 31.0861 54.0199C29.3102 50.6746 26.8586 46.6767 23.5604 42.468C22.6152 43.685 21.7823 44.8976 21.0504 46.092Z" fill="url(#paint7_linear_6_2)"/>
<path d="M17.0563 55.1327C19.2902 58.4801 21.6431 61.1432 24.8626 64.5133C24.1128 63.6476 21.2076 58.5504 18.2417 51.6651C17.7568 52.8685 17.3684 54.0312 17.0563 55.1327Z" fill="url(#paint8_linear_6_2)"/>
<path d="M16.4703 57.5147C19.8403 61.5874 22.6018 64.2686 22.7432 64.4045C22.595 64.2187 19.5529 60.4429 16.7038 56.4812C16.6185 56.8325 16.5399 57.1792 16.4703 57.5147Z" fill="url(#paint9_linear_6_2)"/>
</g>
<defs>
<linearGradient id="paint0_linear_6_2" x1="14.8904" y1="3.96888" x2="47.6249" y2="4.95162" gradientUnits="userSpaceOnUse">
<stop stop-color="#0288F7"/>
<stop offset="1" stop-color="#2EE2BD"/>
</linearGradient>
<linearGradient id="paint1_linear_6_2" x1="17.3955" y1="52.6761" x2="9.21219" y2="32.6294" gradientUnits="userSpaceOnUse">
<stop stop-color="#CB1918"/>
<stop offset="0.388" stop-color="#A2183D"/>
<stop offset="0.749" stop-color="#902869"/>
<stop offset="1" stop-color="#73358A"/>
</linearGradient>
<linearGradient id="paint2_linear_6_2" x1="13.3266" y1="54.3365" x2="5.14308" y2="34.2896" gradientUnits="userSpaceOnUse">
<stop stop-color="#CB1918"/>
<stop offset="0.388" stop-color="#A2183D"/>
<stop offset="0.749" stop-color="#902869"/>
<stop offset="1" stop-color="#73358A"/>
</linearGradient>
<linearGradient id="paint3_linear_6_2" x1="24.5055" y1="49.773" x2="16.322" y2="29.7259" gradientUnits="userSpaceOnUse">
<stop stop-color="#CB1918"/>
<stop offset="0.388" stop-color="#A2183D"/>
<stop offset="0.749" stop-color="#902869"/>
<stop offset="1" stop-color="#73358A"/>
</linearGradient>
<linearGradient id="paint4_linear_6_2" x1="41.0537" y1="38.3959" x2="29.249" y2="51.1693" gradientUnits="userSpaceOnUse">
<stop stop-color="#ADD816"/>
<stop offset="1" stop-color="#DBD704"/>
</linearGradient>
<linearGradient id="paint5_linear_6_2" x1="32.2175" y1="63.1515" x2="22.1313" y2="46.3021" gradientUnits="userSpaceOnUse">
<stop stop-color="#E1282B"/>
<stop offset="0.388" stop-color="#E3402A"/>
<stop offset="0.702" stop-color="#E76226"/>
<stop offset="1" stop-color="#F19A0A"/>
</linearGradient>
<linearGradient id="paint6_linear_6_2" x1="32.853" y1="62.7712" x2="22.7667" y2="45.9216" gradientUnits="userSpaceOnUse">
<stop stop-color="#E1282B"/>
<stop offset="0.388" stop-color="#E3402A"/>
<stop offset="0.702" stop-color="#E76226"/>
<stop offset="1" stop-color="#F19A0A"/>
</linearGradient>
<linearGradient id="paint7_linear_6_2" x1="31.1615" y1="63.7828" x2="21.0756" y2="46.9337" gradientUnits="userSpaceOnUse">
<stop stop-color="#E1282B"/>
<stop offset="0.388" stop-color="#E3402A"/>
<stop offset="0.702" stop-color="#E76226"/>
<stop offset="1" stop-color="#F19A0A"/>
</linearGradient>
<linearGradient id="paint8_linear_6_2" x1="25.6788" y1="67.0651" x2="15.5926" y2="50.2155" gradientUnits="userSpaceOnUse">
<stop stop-color="#E1282B"/>
<stop offset="0.388" stop-color="#E3402A"/>
<stop offset="0.702" stop-color="#E76226"/>
<stop offset="1" stop-color="#F19A0A"/>
</linearGradient>
<linearGradient id="paint9_linear_6_2" x1="23.8401" y1="68.1655" x2="13.7541" y2="51.3163" gradientUnits="userSpaceOnUse">
<stop stop-color="#E1282B"/>
<stop offset="0.388" stop-color="#E3402A"/>
<stop offset="0.702" stop-color="#E76226"/>
<stop offset="1" stop-color="#F19A0A"/>
</linearGradient>
<clipPath id="clip0_6_2">
<rect width="54" height="75" fill="white"/>
</clipPath>
</defs>
</svg>
