<svg width="85" height="98" viewBox="0 0 85 98" fill="none" xmlns="http://www.w3.org/2000/svg">
<path fill-rule="evenodd" clip-rule="evenodd" d="M80.0828 3.2135C79.3291 1.61074 77.7118 0.655254 75.7577 0.655254H68.2065C66.013 0.655254 64.3735 1.538 63.5099 3.1272L52.3183 19.4692L62.1159 32.8596L79.2217 8.3374C81.0994 6.05778 80.4492 3.99392 80.0828 3.2135Z" fill="#74BB11"/>
<path fill-rule="evenodd" clip-rule="evenodd" d="M21.081 2.94103L21.0711 2.92624C19.365 0.654019 17.095 0.654018 16.3487 0.654018H8.96282C7.07039 0.654018 5.52093 1.52321 4.71165 3.03597C3.87894 4.58571 4.05535 6.44738 5.20758 8.17219L32.5687 46.0787L1.10569 89.9351C0.00650965 91.5847 -0.1477 93.418 0.682548 94.9665C1.49676 96.4793 3.04746 97.346 4.93618 97.346H12.4861C14.4279 97.346 16.1353 96.3387 16.989 94.752L52.206 46.2537L21.081 2.94103Z" fill="#009CD9"/>
<path fill-rule="evenodd" clip-rule="evenodd" d="M83.8393 90.3185L61.8877 60.2113L52.2319 73.5142L69.5919 96.6691L70.0434 96.8664C70.7322 97.1758 71.4779 97.3387 72.2331 97.3447H79.6165C81.4004 97.3447 82.9141 96.5532 83.7715 95.1699C84.6498 93.7521 84.6745 91.9854 83.8393 90.3185Z" fill="#EB2084"/>
</svg>
