<svg width="85" height="85" viewBox="0 0 85 85" fill="none" xmlns="http://www.w3.org/2000/svg">
<path d="M66.2402 63.7832L54.4531 53.125H30L18.7598 63.7832C24.6035 70.291 33.0703 74.375 42.5 74.375C51.9297 74.375 60.3965 70.2744 66.2402 63.7832ZM0 42.5C0 31.2283 4.47767 20.4183 12.448 12.448C20.4183 4.47767 31.2283 0 42.5 0C53.7717 0 64.5817 4.47767 72.552 12.448C80.5223 20.4183 85 31.2283 85 42.5C85 53.7717 80.5223 64.5817 72.552 72.552C64.5817 80.5223 53.7717 85 42.5 85C31.2283 85 20.4183 80.5223 12.448 72.552C4.47767 64.5817 0 53.7717 0 42.5ZM42.5 45.1562C45.6702 45.1562 48.7105 43.8969 50.9521 41.6553C53.1938 39.4136 54.4531 36.3733 54.4531 33.2031C54.4531 30.033 53.1938 26.9926 50.9521 24.751C48.7105 22.5093 45.6702 21.25 42.5 21.25C39.3298 21.25 36.2895 22.5093 34.0479 24.751C31.8062 26.9926 30.5469 30.033 30.5469 33.2031C30.5469 36.3733 31.8062 39.4136 34.0479 41.6553C36.2895 43.8969 39.3298 45.1562 42.5 45.1562Z" fill="white"/>
</svg>
